<mxfile host="app.diagrams.net" agent="Mozilla/5.0 (X11; Linux x86_64) AppleWebKit/537.36 (KHTML, like Gecko) Chrome/133.0.0.0 Safari/537.36" version="26.0.16">
  <diagram name="Page-1" id="xlPOJEpFGTMCNW6hLCcL">
    <mxGraphModel dx="1211" dy="612" grid="1" gridSize="10" guides="1" tooltips="1" connect="1" arrows="1" fold="1" page="1" pageScale="1" pageWidth="1169" pageHeight="1654" math="0" shadow="0">
      <root>
        <mxCell id="0" />
        <mxCell id="1" parent="0" />
        <mxCell id="tCC1x4YOR8sQ6aWQIFP9-16" value="Citizen" style="swimlane;whiteSpace=wrap;html=1;" vertex="1" parent="1">
          <mxGeometry x="370" y="325" width="150" height="190" as="geometry" />
        </mxCell>
        <mxCell id="tCC1x4YOR8sQ6aWQIFP9-29" value="&lt;div&gt;&lt;u&gt;Aadhaar&lt;/u&gt;&lt;/div&gt;&lt;div&gt;&lt;span style=&quot;background-color: transparent; color: light-dark(rgb(0, 0, 0), rgb(255, 255, 255));&quot;&gt;Name&lt;/span&gt;&lt;/div&gt;&lt;div&gt;DOB&lt;/div&gt;&lt;div&gt;MotherID&lt;/div&gt;&lt;div&gt;FatherID&lt;/div&gt;&lt;div&gt;Gender&lt;/div&gt;&lt;div&gt;Income&lt;/div&gt;&lt;div&gt;HouseholdID&lt;/div&gt;&lt;div&gt;Occupation&lt;/div&gt;&lt;div&gt;Phone&amp;nbsp;&lt;/div&gt;" style="text;html=1;align=left;verticalAlign=middle;whiteSpace=wrap;rounded=0;" vertex="1" parent="tCC1x4YOR8sQ6aWQIFP9-16">
          <mxGeometry x="10" y="30" width="80" height="150" as="geometry" />
        </mxCell>
        <mxCell id="tCC1x4YOR8sQ6aWQIFP9-18" value="Land" style="swimlane;whiteSpace=wrap;html=1;" vertex="1" parent="1">
          <mxGeometry x="700" y="176" width="80" height="80" as="geometry" />
        </mxCell>
        <mxCell id="tCC1x4YOR8sQ6aWQIFP9-38" value="&lt;u&gt;LandID&lt;/u&gt;&lt;div&gt;Size&lt;/div&gt;&lt;div&gt;Location&lt;/div&gt;" style="text;html=1;align=left;verticalAlign=middle;whiteSpace=wrap;rounded=0;" vertex="1" parent="tCC1x4YOR8sQ6aWQIFP9-18">
          <mxGeometry x="10" y="30" width="65" height="40" as="geometry" />
        </mxCell>
        <mxCell id="tCC1x4YOR8sQ6aWQIFP9-19" value="Household" style="swimlane;whiteSpace=wrap;html=1;" vertex="1" parent="1">
          <mxGeometry x="353" y="86" width="110" height="90" as="geometry" />
        </mxCell>
        <mxCell id="tCC1x4YOR8sQ6aWQIFP9-73" value="&lt;div&gt;&lt;u&gt;HouseholdID&lt;/u&gt;&lt;/div&gt;&lt;div&gt;Address&lt;/div&gt;&lt;div&gt;Income&lt;/div&gt;" style="text;html=1;align=left;verticalAlign=middle;whiteSpace=wrap;rounded=0;" vertex="1" parent="tCC1x4YOR8sQ6aWQIFP9-19">
          <mxGeometry x="10" y="30" width="90" height="50" as="geometry" />
        </mxCell>
        <mxCell id="tCC1x4YOR8sQ6aWQIFP9-20" value="School" style="swimlane;whiteSpace=wrap;html=1;" vertex="1" parent="1">
          <mxGeometry x="709" y="322.5" width="100" height="100" as="geometry" />
        </mxCell>
        <mxCell id="tCC1x4YOR8sQ6aWQIFP9-49" value="&lt;div&gt;&lt;u&gt;SchoolID&lt;/u&gt;&lt;/div&gt;&lt;div&gt;Name&lt;/div&gt;&lt;div&gt;Capacity&lt;/div&gt;&lt;div&gt;Income&lt;/div&gt;" style="text;html=1;align=left;verticalAlign=middle;whiteSpace=wrap;rounded=0;" vertex="1" parent="tCC1x4YOR8sQ6aWQIFP9-20">
          <mxGeometry x="10" y="30" width="70" height="60" as="geometry" />
        </mxCell>
        <mxCell id="tCC1x4YOR8sQ6aWQIFP9-21" value="Crop" style="swimlane;whiteSpace=wrap;html=1;" vertex="1" parent="1">
          <mxGeometry x="1040" y="176" width="70" height="80" as="geometry" />
        </mxCell>
        <mxCell id="tCC1x4YOR8sQ6aWQIFP9-39" value="&lt;u&gt;CropID&lt;/u&gt;&lt;div&gt;Name&lt;/div&gt;&lt;div&gt;Type&lt;/div&gt;" style="text;html=1;align=left;verticalAlign=middle;whiteSpace=wrap;rounded=0;" vertex="1" parent="tCC1x4YOR8sQ6aWQIFP9-21">
          <mxGeometry x="10" y="30" width="60" height="40" as="geometry" />
        </mxCell>
        <mxCell id="tCC1x4YOR8sQ6aWQIFP9-22" value="SchoolAccount" style="swimlane;whiteSpace=wrap;html=1;" vertex="1" parent="1">
          <mxGeometry x="959" y="322" width="130" height="100" as="geometry" />
        </mxCell>
        <mxCell id="tCC1x4YOR8sQ6aWQIFP9-50" value="&lt;div&gt;&lt;span style=&quot;background-color: transparent; color: light-dark(rgb(0, 0, 0), rgb(255, 255, 255));&quot;&gt;&lt;u&gt;BudgetYear&lt;/u&gt;&lt;/span&gt;&lt;/div&gt;&lt;div&gt;AnnualIncome&lt;/div&gt;&lt;div&gt;AnnualExpenditure&lt;/div&gt;" style="text;html=1;align=left;verticalAlign=middle;whiteSpace=wrap;rounded=0;" vertex="1" parent="tCC1x4YOR8sQ6aWQIFP9-22">
          <mxGeometry x="10" y="30" width="110" height="50" as="geometry" />
        </mxCell>
        <mxCell id="tCC1x4YOR8sQ6aWQIFP9-23" value="HospitalAccount" style="swimlane;whiteSpace=wrap;html=1;" vertex="1" parent="1">
          <mxGeometry x="880" y="503" width="130" height="90" as="geometry" />
        </mxCell>
        <mxCell id="tCC1x4YOR8sQ6aWQIFP9-53" value="&lt;div&gt;&lt;span style=&quot;background-color: transparent; color: light-dark(rgb(0, 0, 0), rgb(255, 255, 255));&quot;&gt;&lt;u&gt;BudgetYear&lt;/u&gt;&lt;/span&gt;&lt;/div&gt;&lt;div&gt;AnnualIncome&lt;/div&gt;&lt;div&gt;AnnualExpenditure&lt;/div&gt;" style="text;html=1;align=left;verticalAlign=middle;whiteSpace=wrap;rounded=0;" vertex="1" parent="tCC1x4YOR8sQ6aWQIFP9-23">
          <mxGeometry x="5" y="30" width="110" height="50" as="geometry" />
        </mxCell>
        <mxCell id="tCC1x4YOR8sQ6aWQIFP9-24" value="Hospitals" style="swimlane;whiteSpace=wrap;html=1;" vertex="1" parent="1">
          <mxGeometry x="610" y="498" width="110" height="100" as="geometry" />
        </mxCell>
        <mxCell id="tCC1x4YOR8sQ6aWQIFP9-52" value="&lt;div&gt;&lt;u&gt;HospitallD&lt;/u&gt;&lt;/div&gt;&lt;div&gt;Name&lt;/div&gt;&lt;div&gt;Address&lt;/div&gt;&lt;div&gt;Beds&lt;/div&gt;" style="text;html=1;align=left;verticalAlign=middle;whiteSpace=wrap;rounded=0;" vertex="1" parent="tCC1x4YOR8sQ6aWQIFP9-24">
          <mxGeometry x="10" y="30" width="90" height="70" as="geometry" />
        </mxCell>
        <mxCell id="tCC1x4YOR8sQ6aWQIFP9-25" value="Schemes" style="swimlane;whiteSpace=wrap;html=1;" vertex="1" parent="1">
          <mxGeometry x="205" y="588" width="130" height="142" as="geometry" />
        </mxCell>
        <mxCell id="tCC1x4YOR8sQ6aWQIFP9-105" value="&lt;div&gt;&lt;u&gt;SchemeID&lt;/u&gt;&lt;/div&gt;&lt;div&gt;Description&lt;/div&gt;&lt;div&gt;Name&lt;/div&gt;&lt;div&gt;Type&lt;/div&gt;&lt;div&gt;AllocatedBudget&lt;/div&gt;&lt;div&gt;TargetBeneficiaries&lt;/div&gt;&lt;div&gt;BudgetYear&lt;/div&gt;" style="text;html=1;align=left;verticalAlign=middle;whiteSpace=wrap;rounded=0;" vertex="1" parent="tCC1x4YOR8sQ6aWQIFP9-25">
          <mxGeometry x="10" y="25" width="115" height="110" as="geometry" />
        </mxCell>
        <mxCell id="tCC1x4YOR8sQ6aWQIFP9-26" value="Assets" style="swimlane;whiteSpace=wrap;html=1;startSize=23;" vertex="1" parent="1">
          <mxGeometry x="390" y="928" width="110" height="130" as="geometry" />
        </mxCell>
        <mxCell id="tCC1x4YOR8sQ6aWQIFP9-54" value="&lt;div&gt;&lt;u&gt;AssetID&lt;/u&gt;&lt;/div&gt;&lt;div&gt;Name&lt;/div&gt;&lt;div&gt;Type&lt;/div&gt;&lt;div&gt;InstallationDate&lt;/div&gt;&lt;div&gt;LastSurveyDate&lt;/div&gt;&lt;div&gt;Location&lt;/div&gt;" style="text;html=1;align=left;verticalAlign=middle;whiteSpace=wrap;rounded=0;" vertex="1" parent="tCC1x4YOR8sQ6aWQIFP9-26">
          <mxGeometry x="10" y="30" width="100" height="90" as="geometry" />
        </mxCell>
        <mxCell id="tCC1x4YOR8sQ6aWQIFP9-28" value="Employee" style="swimlane;whiteSpace=wrap;html=1;" vertex="1" parent="1">
          <mxGeometry x="396.25" y="651" width="97.5" height="80" as="geometry" />
        </mxCell>
        <mxCell id="tCC1x4YOR8sQ6aWQIFP9-32" value="&lt;div&gt;&lt;u&gt;EmployeeID&lt;/u&gt;&lt;/div&gt;&lt;div&gt;&lt;span style=&quot;background-color: transparent; color: light-dark(rgb(0, 0, 0), rgb(255, 255, 255));&quot;&gt;Start Date&lt;/span&gt;&lt;/div&gt;&lt;div&gt;Term-Duration&lt;/div&gt;" style="text;html=1;align=left;verticalAlign=middle;whiteSpace=wrap;rounded=0;" vertex="1" parent="tCC1x4YOR8sQ6aWQIFP9-28">
          <mxGeometry x="3.12" y="23" width="85" height="50" as="geometry" />
        </mxCell>
        <mxCell id="tCC1x4YOR8sQ6aWQIFP9-36" value="" style="shape=flexArrow;endArrow=classic;html=1;rounded=0;entryX=0.5;entryY=1;entryDx=0;entryDy=0;exitX=0.5;exitY=0;exitDx=0;exitDy=0;width=0.4;endSize=5.668;" edge="1" parent="1" source="tCC1x4YOR8sQ6aWQIFP9-28" target="tCC1x4YOR8sQ6aWQIFP9-16">
          <mxGeometry width="50" height="50" relative="1" as="geometry">
            <mxPoint x="550" y="618" as="sourcePoint" />
            <mxPoint x="600" y="568" as="targetPoint" />
          </mxGeometry>
        </mxCell>
        <mxCell id="tCC1x4YOR8sQ6aWQIFP9-40" value="" style="rhombus;whiteSpace=wrap;html=1;" vertex="1" parent="1">
          <mxGeometry x="870" y="196" width="100" height="40" as="geometry" />
        </mxCell>
        <mxCell id="tCC1x4YOR8sQ6aWQIFP9-41" value="LandCrop" style="text;html=1;align=center;verticalAlign=middle;whiteSpace=wrap;rounded=0;" vertex="1" parent="1">
          <mxGeometry x="890" y="206" width="60" height="20" as="geometry" />
        </mxCell>
        <mxCell id="tCC1x4YOR8sQ6aWQIFP9-43" value="" style="endArrow=none;html=1;rounded=0;entryX=0;entryY=0.5;entryDx=0;entryDy=0;exitX=1;exitY=0.5;exitDx=0;exitDy=0;" edge="1" parent="1" source="tCC1x4YOR8sQ6aWQIFP9-18" target="tCC1x4YOR8sQ6aWQIFP9-40">
          <mxGeometry width="50" height="50" relative="1" as="geometry">
            <mxPoint x="730" y="196" as="sourcePoint" />
            <mxPoint x="780" y="146" as="targetPoint" />
          </mxGeometry>
        </mxCell>
        <mxCell id="tCC1x4YOR8sQ6aWQIFP9-44" value="" style="endArrow=none;html=1;rounded=0;entryX=0;entryY=0.5;entryDx=0;entryDy=0;exitX=1;exitY=0.5;exitDx=0;exitDy=0;" edge="1" parent="1" source="tCC1x4YOR8sQ6aWQIFP9-40" target="tCC1x4YOR8sQ6aWQIFP9-21">
          <mxGeometry width="50" height="50" relative="1" as="geometry">
            <mxPoint x="730" y="196" as="sourcePoint" />
            <mxPoint x="780" y="146" as="targetPoint" />
          </mxGeometry>
        </mxCell>
        <mxCell id="tCC1x4YOR8sQ6aWQIFP9-46" value="" style="endArrow=none;dashed=1;html=1;rounded=0;exitX=0.5;exitY=0;exitDx=0;exitDy=0;entryX=0.5;entryY=1;entryDx=0;entryDy=0;" edge="1" parent="1" source="tCC1x4YOR8sQ6aWQIFP9-40" target="tCC1x4YOR8sQ6aWQIFP9-47">
          <mxGeometry width="50" height="50" relative="1" as="geometry">
            <mxPoint x="730" y="196" as="sourcePoint" />
            <mxPoint x="920" y="156" as="targetPoint" />
          </mxGeometry>
        </mxCell>
        <mxCell id="tCC1x4YOR8sQ6aWQIFP9-47" value="" style="rounded=0;whiteSpace=wrap;html=1;" vertex="1" parent="1">
          <mxGeometry x="865" y="99" width="110" height="70" as="geometry" />
        </mxCell>
        <mxCell id="tCC1x4YOR8sQ6aWQIFP9-48" value="&lt;div&gt;Area&lt;/div&gt;&lt;div&gt;&lt;span style=&quot;background-color: transparent; color: light-dark(rgb(0, 0, 0), rgb(255, 255, 255));&quot;&gt;AnnualYield&lt;/span&gt;&lt;/div&gt;&lt;div&gt;&lt;span style=&quot;background-color: transparent; color: light-dark(rgb(0, 0, 0), rgb(255, 255, 255));&quot;&gt;isOrganic&lt;/span&gt;&lt;/div&gt;&lt;div&gt;&lt;span style=&quot;background-color: transparent; color: light-dark(rgb(0, 0, 0), rgb(255, 255, 255));&quot;&gt;IrrigationMethod&lt;/span&gt;&lt;/div&gt;&lt;div&gt;&lt;span style=&quot;background-color: transparent; color: light-dark(rgb(0, 0, 0), rgb(255, 255, 255));&quot;&gt;WaterUsage&lt;/span&gt;&lt;/div&gt;&lt;div&gt;&lt;br&gt;&lt;/div&gt;" style="text;html=1;align=left;verticalAlign=middle;whiteSpace=wrap;rounded=0;" vertex="1" parent="1">
          <mxGeometry x="870" y="114" width="100" height="55" as="geometry" />
        </mxCell>
        <mxCell id="tCC1x4YOR8sQ6aWQIFP9-59" style="edgeStyle=orthogonalEdgeStyle;rounded=0;orthogonalLoop=1;jettySize=auto;html=1;exitX=0.5;exitY=0;exitDx=0;exitDy=0;entryX=0.5;entryY=1;entryDx=0;entryDy=0;" edge="1" parent="1" source="tCC1x4YOR8sQ6aWQIFP9-57" target="tCC1x4YOR8sQ6aWQIFP9-28">
          <mxGeometry relative="1" as="geometry">
            <mxPoint x="440" y="748" as="targetPoint" />
          </mxGeometry>
        </mxCell>
        <mxCell id="tCC1x4YOR8sQ6aWQIFP9-57" value="" style="rhombus;whiteSpace=wrap;html=1;" vertex="1" parent="1">
          <mxGeometry x="393.13" y="788" width="103.75" height="80" as="geometry" />
        </mxCell>
        <mxCell id="tCC1x4YOR8sQ6aWQIFP9-58" value="&lt;div&gt;Surveys&lt;/div&gt;" style="text;html=1;align=center;verticalAlign=middle;whiteSpace=wrap;rounded=0;" vertex="1" parent="1">
          <mxGeometry x="410.94" y="810.5" width="68.12" height="35" as="geometry" />
        </mxCell>
        <mxCell id="tCC1x4YOR8sQ6aWQIFP9-60" value="" style="endArrow=none;html=1;rounded=0;entryX=0.5;entryY=1;entryDx=0;entryDy=0;exitX=0.5;exitY=0;exitDx=0;exitDy=0;" edge="1" parent="1" source="tCC1x4YOR8sQ6aWQIFP9-26" target="tCC1x4YOR8sQ6aWQIFP9-57">
          <mxGeometry width="50" height="50" relative="1" as="geometry">
            <mxPoint x="580" y="928" as="sourcePoint" />
            <mxPoint x="630" y="878" as="targetPoint" />
          </mxGeometry>
        </mxCell>
        <mxCell id="tCC1x4YOR8sQ6aWQIFP9-62" value="" style="rounded=0;whiteSpace=wrap;html=1;" vertex="1" parent="1">
          <mxGeometry x="540" y="808" width="80" height="40" as="geometry" />
        </mxCell>
        <mxCell id="tCC1x4YOR8sQ6aWQIFP9-63" value="&lt;u&gt;SurveyDate&lt;/u&gt;" style="text;html=1;align=center;verticalAlign=middle;whiteSpace=wrap;rounded=0;" vertex="1" parent="1">
          <mxGeometry x="550" y="810.5" width="60" height="30" as="geometry" />
        </mxCell>
        <mxCell id="tCC1x4YOR8sQ6aWQIFP9-66" style="edgeStyle=orthogonalEdgeStyle;rounded=0;orthogonalLoop=1;jettySize=auto;html=1;exitX=0;exitY=0.5;exitDx=0;exitDy=0;entryX=1;entryY=0.5;entryDx=0;entryDy=0;" edge="1" parent="1" source="tCC1x4YOR8sQ6aWQIFP9-64" target="tCC1x4YOR8sQ6aWQIFP9-20">
          <mxGeometry relative="1" as="geometry" />
        </mxCell>
        <mxCell id="tCC1x4YOR8sQ6aWQIFP9-64" value="" style="rhombus;whiteSpace=wrap;html=1;" vertex="1" parent="1">
          <mxGeometry x="849" y="342" width="70" height="60" as="geometry" />
        </mxCell>
        <mxCell id="tCC1x4YOR8sQ6aWQIFP9-65" value="Maintains" style="text;html=1;align=center;verticalAlign=middle;whiteSpace=wrap;rounded=0;" vertex="1" parent="1">
          <mxGeometry x="854" y="357" width="60" height="30" as="geometry" />
        </mxCell>
        <mxCell id="tCC1x4YOR8sQ6aWQIFP9-67" value="" style="endArrow=none;html=1;rounded=0;entryX=0;entryY=0.5;entryDx=0;entryDy=0;exitX=1;exitY=0.5;exitDx=0;exitDy=0;" edge="1" parent="1" source="tCC1x4YOR8sQ6aWQIFP9-64" target="tCC1x4YOR8sQ6aWQIFP9-22">
          <mxGeometry width="50" height="50" relative="1" as="geometry">
            <mxPoint x="889" y="392" as="sourcePoint" />
            <mxPoint x="939" y="342" as="targetPoint" />
          </mxGeometry>
        </mxCell>
        <mxCell id="tCC1x4YOR8sQ6aWQIFP9-68" style="edgeStyle=orthogonalEdgeStyle;rounded=0;orthogonalLoop=1;jettySize=auto;html=1;exitX=0;exitY=0.5;exitDx=0;exitDy=0;entryX=1;entryY=0.5;entryDx=0;entryDy=0;" edge="1" parent="1" source="tCC1x4YOR8sQ6aWQIFP9-69" target="tCC1x4YOR8sQ6aWQIFP9-24">
          <mxGeometry relative="1" as="geometry">
            <mxPoint x="730" y="548" as="targetPoint" />
          </mxGeometry>
        </mxCell>
        <mxCell id="tCC1x4YOR8sQ6aWQIFP9-69" value="" style="rhombus;whiteSpace=wrap;html=1;" vertex="1" parent="1">
          <mxGeometry x="765" y="518" width="70" height="60" as="geometry" />
        </mxCell>
        <mxCell id="tCC1x4YOR8sQ6aWQIFP9-70" value="Maintains" style="text;html=1;align=center;verticalAlign=middle;whiteSpace=wrap;rounded=0;" vertex="1" parent="1">
          <mxGeometry x="770" y="533" width="60" height="30" as="geometry" />
        </mxCell>
        <mxCell id="tCC1x4YOR8sQ6aWQIFP9-71" value="" style="endArrow=none;html=1;rounded=0;entryX=0;entryY=0.5;entryDx=0;entryDy=0;exitX=1;exitY=0.5;exitDx=0;exitDy=0;" edge="1" parent="1" source="tCC1x4YOR8sQ6aWQIFP9-69" target="tCC1x4YOR8sQ6aWQIFP9-23">
          <mxGeometry width="50" height="50" relative="1" as="geometry">
            <mxPoint x="820" y="568" as="sourcePoint" />
            <mxPoint x="890" y="548" as="targetPoint" />
          </mxGeometry>
        </mxCell>
        <mxCell id="tCC1x4YOR8sQ6aWQIFP9-80" style="edgeStyle=orthogonalEdgeStyle;rounded=0;orthogonalLoop=1;jettySize=auto;html=1;entryX=0.5;entryY=1;entryDx=0;entryDy=0;exitX=0.5;exitY=0;exitDx=0;exitDy=0;" edge="1" parent="1" source="tCC1x4YOR8sQ6aWQIFP9-75" target="tCC1x4YOR8sQ6aWQIFP9-19">
          <mxGeometry relative="1" as="geometry" />
        </mxCell>
        <mxCell id="tCC1x4YOR8sQ6aWQIFP9-75" value="" style="rhombus;whiteSpace=wrap;html=1;" vertex="1" parent="1">
          <mxGeometry x="373" y="221" width="70" height="60" as="geometry" />
        </mxCell>
        <mxCell id="tCC1x4YOR8sQ6aWQIFP9-76" value="Belongs To" style="text;html=1;align=center;verticalAlign=middle;whiteSpace=wrap;rounded=0;" vertex="1" parent="1">
          <mxGeometry x="378" y="242" width="60" height="30" as="geometry" />
        </mxCell>
        <mxCell id="tCC1x4YOR8sQ6aWQIFP9-81" value="" style="shape=link;html=1;rounded=0;exitX=0.25;exitY=0;exitDx=0;exitDy=0;entryX=0.5;entryY=1;entryDx=0;entryDy=0;" edge="1" parent="1" source="tCC1x4YOR8sQ6aWQIFP9-16" target="tCC1x4YOR8sQ6aWQIFP9-75">
          <mxGeometry relative="1" as="geometry">
            <mxPoint x="520" y="403" as="sourcePoint" />
            <mxPoint x="680" y="403" as="targetPoint" />
            <Array as="points" />
          </mxGeometry>
        </mxCell>
        <mxCell id="tCC1x4YOR8sQ6aWQIFP9-83" value="" style="rhombus;whiteSpace=wrap;html=1;" vertex="1" parent="1">
          <mxGeometry x="567" y="345" width="80" height="55" as="geometry" />
        </mxCell>
        <mxCell id="tCC1x4YOR8sQ6aWQIFP9-84" value="Attends" style="text;html=1;align=center;verticalAlign=middle;whiteSpace=wrap;rounded=0;" vertex="1" parent="1">
          <mxGeometry x="577" y="358.5" width="60" height="30" as="geometry" />
        </mxCell>
        <mxCell id="tCC1x4YOR8sQ6aWQIFP9-85" value="" style="endArrow=none;html=1;rounded=0;exitX=1;exitY=0.5;exitDx=0;exitDy=0;entryX=0;entryY=0.5;entryDx=0;entryDy=0;" edge="1" parent="1" source="tCC1x4YOR8sQ6aWQIFP9-83" target="tCC1x4YOR8sQ6aWQIFP9-20">
          <mxGeometry width="50" height="50" relative="1" as="geometry">
            <mxPoint x="682" y="473" as="sourcePoint" />
            <mxPoint x="782" y="373" as="targetPoint" />
          </mxGeometry>
        </mxCell>
        <mxCell id="tCC1x4YOR8sQ6aWQIFP9-86" value="" style="endArrow=none;html=1;rounded=0;entryX=0;entryY=0.5;entryDx=0;entryDy=0;exitX=1;exitY=0.25;exitDx=0;exitDy=0;" edge="1" parent="1" source="tCC1x4YOR8sQ6aWQIFP9-16" target="tCC1x4YOR8sQ6aWQIFP9-83">
          <mxGeometry width="50" height="50" relative="1" as="geometry">
            <mxPoint x="820" y="568" as="sourcePoint" />
            <mxPoint x="870" y="518" as="targetPoint" />
          </mxGeometry>
        </mxCell>
        <mxCell id="tCC1x4YOR8sQ6aWQIFP9-88" value="" style="endArrow=none;dashed=1;html=1;rounded=0;entryX=0.5;entryY=1;entryDx=0;entryDy=0;" edge="1" parent="1" target="tCC1x4YOR8sQ6aWQIFP9-83">
          <mxGeometry width="50" height="50" relative="1" as="geometry">
            <mxPoint x="607" y="423" as="sourcePoint" />
            <mxPoint x="982" y="473" as="targetPoint" />
          </mxGeometry>
        </mxCell>
        <mxCell id="tCC1x4YOR8sQ6aWQIFP9-89" value="" style="rounded=0;whiteSpace=wrap;html=1;" vertex="1" parent="1">
          <mxGeometry x="572" y="423" width="70" height="50" as="geometry" />
        </mxCell>
        <mxCell id="tCC1x4YOR8sQ6aWQIFP9-90" value="&lt;u&gt;Qualification&lt;/u&gt;&lt;div&gt;PassDate&lt;/div&gt;" style="text;html=1;align=left;verticalAlign=middle;whiteSpace=wrap;rounded=0;" vertex="1" parent="1">
          <mxGeometry x="572" y="428" width="75" height="40" as="geometry" />
        </mxCell>
        <mxCell id="tCC1x4YOR8sQ6aWQIFP9-94" value="Certificates" style="swimlane;whiteSpace=wrap;html=1;" vertex="1" parent="1">
          <mxGeometry x="69" y="332" width="90" height="80" as="geometry" />
        </mxCell>
        <mxCell id="tCC1x4YOR8sQ6aWQIFP9-95" value="&lt;u&gt;Type&lt;/u&gt;&lt;div&gt;DateIssued&lt;/div&gt;&lt;div&gt;File (blob)&lt;/div&gt;" style="text;html=1;align=left;verticalAlign=middle;whiteSpace=wrap;rounded=0;" vertex="1" parent="tCC1x4YOR8sQ6aWQIFP9-94">
          <mxGeometry x="10" y="26" width="70" height="50" as="geometry" />
        </mxCell>
        <mxCell id="tCC1x4YOR8sQ6aWQIFP9-96" value="" style="rhombus;whiteSpace=wrap;html=1;" vertex="1" parent="1">
          <mxGeometry x="234" y="352" width="80" height="40" as="geometry" />
        </mxCell>
        <mxCell id="tCC1x4YOR8sQ6aWQIFP9-97" value="Holds" style="text;html=1;align=center;verticalAlign=middle;whiteSpace=wrap;rounded=0;" vertex="1" parent="1">
          <mxGeometry x="244.01" y="357" width="60" height="30" as="geometry" />
        </mxCell>
        <mxCell id="tCC1x4YOR8sQ6aWQIFP9-99" value="" style="endArrow=none;html=1;rounded=0;entryX=1;entryY=0.5;entryDx=0;entryDy=0;exitX=0;exitY=0.5;exitDx=0;exitDy=0;" edge="1" parent="1" source="tCC1x4YOR8sQ6aWQIFP9-96" target="tCC1x4YOR8sQ6aWQIFP9-94">
          <mxGeometry width="50" height="50" relative="1" as="geometry">
            <mxPoint x="359" y="290" as="sourcePoint" />
            <mxPoint x="409" y="240" as="targetPoint" />
          </mxGeometry>
        </mxCell>
        <mxCell id="tCC1x4YOR8sQ6aWQIFP9-109" value="" style="endArrow=none;html=1;rounded=0;entryX=0;entryY=0.75;entryDx=0;entryDy=0;exitX=0.5;exitY=0;exitDx=0;exitDy=0;" edge="1" parent="1" source="tCC1x4YOR8sQ6aWQIFP9-110" target="tCC1x4YOR8sQ6aWQIFP9-16">
          <mxGeometry width="50" height="50" relative="1" as="geometry">
            <mxPoint x="540" y="580" as="sourcePoint" />
            <mxPoint x="780" y="870" as="targetPoint" />
            <Array as="points">
              <mxPoint x="270" y="468" />
            </Array>
          </mxGeometry>
        </mxCell>
        <mxCell id="tCC1x4YOR8sQ6aWQIFP9-110" value="" style="rhombus;whiteSpace=wrap;html=1;" vertex="1" parent="1">
          <mxGeometry x="220" y="490" width="100" height="60" as="geometry" />
        </mxCell>
        <mxCell id="tCC1x4YOR8sQ6aWQIFP9-111" value="Enrolls" style="text;html=1;align=center;verticalAlign=middle;whiteSpace=wrap;rounded=0;" vertex="1" parent="1">
          <mxGeometry x="240" y="507.5" width="60" height="25" as="geometry" />
        </mxCell>
        <mxCell id="tCC1x4YOR8sQ6aWQIFP9-112" value="" style="endArrow=none;html=1;rounded=0;entryX=0.5;entryY=1;entryDx=0;entryDy=0;exitX=0.5;exitY=0;exitDx=0;exitDy=0;" edge="1" parent="1" source="tCC1x4YOR8sQ6aWQIFP9-25" target="tCC1x4YOR8sQ6aWQIFP9-110">
          <mxGeometry width="50" height="50" relative="1" as="geometry">
            <mxPoint x="410" y="670" as="sourcePoint" />
            <mxPoint x="460" y="620" as="targetPoint" />
          </mxGeometry>
        </mxCell>
        <mxCell id="tCC1x4YOR8sQ6aWQIFP9-114" style="edgeStyle=orthogonalEdgeStyle;rounded=0;orthogonalLoop=1;jettySize=auto;html=1;entryX=0;entryY=0.25;entryDx=0;entryDy=0;exitX=1;exitY=0.5;exitDx=0;exitDy=0;" edge="1" parent="1" source="tCC1x4YOR8sQ6aWQIFP9-96" target="tCC1x4YOR8sQ6aWQIFP9-16">
          <mxGeometry relative="1" as="geometry">
            <mxPoint x="445" y="260" as="sourcePoint" />
          </mxGeometry>
        </mxCell>
        <mxCell id="tCC1x4YOR8sQ6aWQIFP9-115" value="" style="rhombus;whiteSpace=wrap;html=1;" vertex="1" parent="1">
          <mxGeometry x="567" y="191" width="73" height="49" as="geometry" />
        </mxCell>
        <mxCell id="tCC1x4YOR8sQ6aWQIFP9-117" style="edgeStyle=orthogonalEdgeStyle;rounded=0;orthogonalLoop=1;jettySize=auto;html=1;exitX=0.5;exitY=1;exitDx=0;exitDy=0;" edge="1" parent="1" source="tCC1x4YOR8sQ6aWQIFP9-115" target="tCC1x4YOR8sQ6aWQIFP9-115">
          <mxGeometry relative="1" as="geometry" />
        </mxCell>
        <mxCell id="tCC1x4YOR8sQ6aWQIFP9-119" style="edgeStyle=orthogonalEdgeStyle;rounded=0;orthogonalLoop=1;jettySize=auto;html=1;entryX=0.75;entryY=0;entryDx=0;entryDy=0;exitX=0;exitY=0.5;exitDx=0;exitDy=0;" edge="1" parent="1" source="tCC1x4YOR8sQ6aWQIFP9-115" target="tCC1x4YOR8sQ6aWQIFP9-16">
          <mxGeometry relative="1" as="geometry">
            <mxPoint x="550" y="260" as="sourcePoint" />
          </mxGeometry>
        </mxCell>
        <mxCell id="tCC1x4YOR8sQ6aWQIFP9-118" value="Owns" style="text;html=1;align=center;verticalAlign=middle;whiteSpace=wrap;rounded=0;" vertex="1" parent="1">
          <mxGeometry x="573.5" y="200.5" width="60" height="30" as="geometry" />
        </mxCell>
        <mxCell id="tCC1x4YOR8sQ6aWQIFP9-120" value="" style="endArrow=none;html=1;rounded=0;exitX=1;exitY=0.5;exitDx=0;exitDy=0;entryX=0;entryY=0.5;entryDx=0;entryDy=0;" edge="1" parent="1" source="tCC1x4YOR8sQ6aWQIFP9-115" target="tCC1x4YOR8sQ6aWQIFP9-18">
          <mxGeometry width="50" height="50" relative="1" as="geometry">
            <mxPoint x="920" y="390" as="sourcePoint" />
            <mxPoint x="970" y="340" as="targetPoint" />
          </mxGeometry>
        </mxCell>
        <mxCell id="tCC1x4YOR8sQ6aWQIFP9-121" value="" style="endArrow=none;dashed=1;html=1;rounded=0;exitX=1;exitY=0.5;exitDx=0;exitDy=0;entryX=0;entryY=0.5;entryDx=0;entryDy=0;" edge="1" parent="1" source="tCC1x4YOR8sQ6aWQIFP9-57" target="tCC1x4YOR8sQ6aWQIFP9-62">
          <mxGeometry width="50" height="50" relative="1" as="geometry">
            <mxPoint x="393" y="828" as="sourcePoint" />
            <mxPoint x="540" y="830" as="targetPoint" />
          </mxGeometry>
        </mxCell>
        <mxCell id="tCC1x4YOR8sQ6aWQIFP9-123" value="" style="endArrow=none;dashed=1;html=1;rounded=0;entryX=0;entryY=0.5;entryDx=0;entryDy=0;exitX=1;exitY=0.5;exitDx=0;exitDy=0;" edge="1" parent="1" source="tCC1x4YOR8sQ6aWQIFP9-124" target="tCC1x4YOR8sQ6aWQIFP9-110">
          <mxGeometry width="50" height="50" relative="1" as="geometry">
            <mxPoint x="190" y="520" as="sourcePoint" />
            <mxPoint x="550" y="788" as="targetPoint" />
          </mxGeometry>
        </mxCell>
        <mxCell id="tCC1x4YOR8sQ6aWQIFP9-124" value="" style="rounded=0;whiteSpace=wrap;html=1;" vertex="1" parent="1">
          <mxGeometry x="80" y="480" width="105" height="80" as="geometry" />
        </mxCell>
        <mxCell id="tCC1x4YOR8sQ6aWQIFP9-125" value="Date&lt;div&gt;Status&lt;/div&gt;&lt;div&gt;BenefitsReceived&lt;/div&gt;&lt;div&gt;LastBenefitDate&lt;/div&gt;" style="text;html=1;align=left;verticalAlign=middle;whiteSpace=wrap;rounded=0;" vertex="1" parent="1">
          <mxGeometry x="82.5" y="490" width="102.5" height="60" as="geometry" />
        </mxCell>
        <mxCell id="tCC1x4YOR8sQ6aWQIFP9-128" value="" style="rhombus;whiteSpace=wrap;html=1;" vertex="1" parent="1">
          <mxGeometry x="911" y="660" width="70" height="62" as="geometry" />
        </mxCell>
        <mxCell id="tCC1x4YOR8sQ6aWQIFP9-130" value="" style="endArrow=none;html=1;rounded=0;entryX=0.5;entryY=1;entryDx=0;entryDy=0;exitX=0.5;exitY=0;exitDx=0;exitDy=0;" edge="1" parent="1" source="tCC1x4YOR8sQ6aWQIFP9-128" target="tCC1x4YOR8sQ6aWQIFP9-23">
          <mxGeometry width="50" height="50" relative="1" as="geometry">
            <mxPoint x="590" y="730" as="sourcePoint" />
            <mxPoint x="640" y="680" as="targetPoint" />
          </mxGeometry>
        </mxCell>
        <mxCell id="tCC1x4YOR8sQ6aWQIFP9-131" value="" style="endArrow=none;html=1;rounded=0;entryX=0.5;entryY=1;entryDx=0;entryDy=0;exitX=1;exitY=0.5;exitDx=0;exitDy=0;" edge="1" parent="1" source="tCC1x4YOR8sQ6aWQIFP9-128" target="tCC1x4YOR8sQ6aWQIFP9-22">
          <mxGeometry width="50" height="50" relative="1" as="geometry">
            <mxPoint x="590" y="730" as="sourcePoint" />
            <mxPoint x="640" y="680" as="targetPoint" />
            <Array as="points">
              <mxPoint x="1024" y="691" />
            </Array>
          </mxGeometry>
        </mxCell>
        <mxCell id="tCC1x4YOR8sQ6aWQIFP9-132" value="" style="endArrow=none;html=1;rounded=0;entryX=0;entryY=0.5;entryDx=0;entryDy=0;exitX=1;exitY=0.25;exitDx=0;exitDy=0;" edge="1" parent="1" source="tCC1x4YOR8sQ6aWQIFP9-133" target="tCC1x4YOR8sQ6aWQIFP9-128">
          <mxGeometry width="50" height="50" relative="1" as="geometry">
            <mxPoint x="861" y="690" as="sourcePoint" />
            <mxPoint x="661" y="570" as="targetPoint" />
          </mxGeometry>
        </mxCell>
        <mxCell id="tCC1x4YOR8sQ6aWQIFP9-133" value="Environmental Data" style="swimlane;whiteSpace=wrap;html=1;startSize=30;" vertex="1" parent="1">
          <mxGeometry x="711" y="649" width="160" height="169" as="geometry" />
        </mxCell>
        <mxCell id="tCC1x4YOR8sQ6aWQIFP9-134" value="&lt;div&gt;&lt;u&gt;Record_ID&lt;/u&gt;&lt;/div&gt;&lt;div&gt;Timeframe&lt;/div&gt;Air Quality&lt;div&gt;Rainfall Amount&lt;/div&gt;&lt;div&gt;Groundwater Level&lt;/div&gt;&lt;div&gt;Forest Cover&lt;/div&gt;&lt;div&gt;Water Body Conditions&lt;/div&gt;&lt;div&gt;&lt;span style=&quot;background-color: transparent; color: light-dark(rgb(0, 0, 0), rgb(255, 255, 255));&quot;&gt;Notes&lt;/span&gt;&lt;/div&gt;" style="text;html=1;align=left;verticalAlign=middle;whiteSpace=wrap;rounded=0;" vertex="1" parent="tCC1x4YOR8sQ6aWQIFP9-133">
          <mxGeometry x="5.5" y="31.5" width="154.5" height="132.5" as="geometry" />
        </mxCell>
        <mxCell id="tCC1x4YOR8sQ6aWQIFP9-136" value="Tracks" style="text;html=1;align=center;verticalAlign=middle;whiteSpace=wrap;rounded=0;" vertex="1" parent="1">
          <mxGeometry x="916" y="678" width="60" height="30" as="geometry" />
        </mxCell>
        <mxCell id="tCC1x4YOR8sQ6aWQIFP9-138" value="Monitor" style="swimlane;whiteSpace=wrap;html=1;" vertex="1" parent="1">
          <mxGeometry x="901" y="768" width="90" height="60" as="geometry" />
        </mxCell>
        <mxCell id="tCC1x4YOR8sQ6aWQIFP9-139" value="&lt;u&gt;MonitorID&lt;/u&gt;&lt;div&gt;Name&lt;/div&gt;" style="text;html=1;align=left;verticalAlign=middle;whiteSpace=wrap;rounded=0;" vertex="1" parent="tCC1x4YOR8sQ6aWQIFP9-138">
          <mxGeometry x="20" y="28" width="60" height="30" as="geometry" />
        </mxCell>
        <mxCell id="tCC1x4YOR8sQ6aWQIFP9-140" value="" style="endArrow=none;html=1;rounded=0;entryX=0.5;entryY=1;entryDx=0;entryDy=0;exitX=0.5;exitY=0;exitDx=0;exitDy=0;" edge="1" parent="1" source="tCC1x4YOR8sQ6aWQIFP9-138" target="tCC1x4YOR8sQ6aWQIFP9-128">
          <mxGeometry width="50" height="50" relative="1" as="geometry">
            <mxPoint x="691" y="790" as="sourcePoint" />
            <mxPoint x="741" y="740" as="targetPoint" />
          </mxGeometry>
        </mxCell>
        <mxCell id="tCC1x4YOR8sQ6aWQIFP9-149" style="edgeStyle=orthogonalEdgeStyle;rounded=0;orthogonalLoop=1;jettySize=auto;html=1;entryX=1;entryY=0.5;entryDx=0;entryDy=0;" edge="1" parent="1" source="tCC1x4YOR8sQ6aWQIFP9-145" target="tCC1x4YOR8sQ6aWQIFP9-28">
          <mxGeometry relative="1" as="geometry" />
        </mxCell>
        <mxCell id="tCC1x4YOR8sQ6aWQIFP9-145" value="" style="rhombus;whiteSpace=wrap;html=1;" vertex="1" parent="1">
          <mxGeometry x="557" y="666" width="77" height="50" as="geometry" />
        </mxCell>
        <mxCell id="tCC1x4YOR8sQ6aWQIFP9-146" value="Records" style="text;html=1;align=center;verticalAlign=middle;whiteSpace=wrap;rounded=0;" vertex="1" parent="1">
          <mxGeometry x="566" y="677" width="60" height="30" as="geometry" />
        </mxCell>
        <mxCell id="tCC1x4YOR8sQ6aWQIFP9-150" value="" style="endArrow=none;html=1;rounded=0;entryX=0;entryY=0.25;entryDx=0;entryDy=0;exitX=1;exitY=0.5;exitDx=0;exitDy=0;" edge="1" parent="1" source="tCC1x4YOR8sQ6aWQIFP9-145" target="tCC1x4YOR8sQ6aWQIFP9-133">
          <mxGeometry width="50" height="50" relative="1" as="geometry">
            <mxPoint x="600" y="780" as="sourcePoint" />
            <mxPoint x="650" y="730" as="targetPoint" />
          </mxGeometry>
        </mxCell>
      </root>
    </mxGraphModel>
  </diagram>
</mxfile>
